<?xml version="1.0" encoding="UTF-8"?>
<svg width="1408" height="768" viewBox="0 0 1408 768" xmlns="http://www.w3.org/2000/svg">
  <path id="6" d="M 0,768 C 0,512 0,256 0,0 C 469.333,0 938.667,0 1408,0 C 1408,256 1408,512 1408,768 C 938.667,768 469.333,768 0,768 ZM 446.019,382.223 C 444.488,389.611 446.424,414.238 450.550,439.852 C 462.514,514.131 493.799,573.486 535.398,600.829 C 569.103,622.983 611.876,635.709 667.324,640.081 C 689.880,641.859 742.291,640.739 762,638.058 C 831.244,628.637 878.663,605.927 906.885,568.670 C 923.183,547.154 934.870,523.841 944.819,493 C 953.925,464.773 959.413,435.900 962.062,402.288 C 963.308,386.483 962.685,381.258 958.593,373.183 C 949.919,356.066 925.048,341.043 884.500,328.428 C 870.797,324.165 865.944,323.986 863.073,327.635 C 860.229,331.250 860.362,336.453 863.375,339.466 C 864.734,340.825 868.906,342.748 873.125,343.962 C 921.282,357.814 948.405,376.642 943.964,393.133 C 939.735,408.837 908.761,427.975 863.304,442.969 C 826.109,455.238 785.682,462.965 743,465.962 C 722.803,467.380 678,467.334 678,465.894 C 678,464.700 697.594,427.019 698.896,425.709 C 699.328,425.274 705.266,424.481 712.091,423.948 C 768.300,419.558 807.921,395.852 831.502,352.500 C 837.718,341.073 841.301,331.469 848.074,308.080 C 855.175,283.557 859.965,273.055 867.404,265.697 C 874.390,258.787 881.658,254.609 894.632,250.044 C 908.782,245.065 912.015,241.516 908.811,234.484 C 907.621,231.872 905.459,230.696 880.500,219.082 C 872.184,215.212 871.196,214.434 867.500,208.824 C 860.664,198.449 846.823,188.582 833.974,184.924 C 831.514,184.224 825.225,183.639 820,183.626 C 806.922,183.593 797.293,186.566 785.976,194.129 C 775.068,201.419 770.605,206.513 752.075,232.824 C 749.651,236.265 747.228,239.707 744.804,243.148 C 742.420,240.844 740.036,238.540 737.652,236.236 C 717.007,216.285 690.345,201.529 645.390,185.175 C 588.597,164.513 565.866,153.635 542.256,135.816 C 529.532,126.213 526.532,125.221 521.702,129.020 C 517.859,132.043 516.536,139.706 516.527,159 C 516.517,181.948 520.048,195.459 530.836,213.742 C 535.376,221.437 535.741,222.568 536.322,230.755 C 538.246,257.861 550.818,284.206 571.611,304.708 C 575.062,308.111 578.513,311.513 581.964,314.916 C 580.720,315.132 579.476,315.349 578.232,315.565 C 557.436,319.183 529.628,326.136 512.500,331.999 C 488.403,340.247 463.697,354.265 455.299,364.454 C 450.965,369.711 447.063,377.183 446.019,382.223 Z" fill="#FFFFFF" stroke="none" />
  <path id="7" d="M 446.019,382.223 C 447.063,377.183 450.965,369.711 455.299,364.454 C 463.697,354.265 488.403,340.247 512.500,331.999 C 529.628,326.136 557.436,319.183 578.232,315.565 C 579.476,315.349 580.720,315.132 581.964,314.916 C 578.513,311.513 575.062,308.111 571.611,304.708 C 550.818,284.206 538.246,257.861 536.322,230.755 C 535.741,222.568 535.376,221.437 530.836,213.742 C 520.048,195.459 516.517,181.948 516.527,159 C 516.536,139.706 517.859,132.043 521.702,129.020 C 526.532,125.221 529.532,126.213 542.256,135.816 C 565.866,153.635 588.597,164.513 645.390,185.175 C 690.345,201.529 717.007,216.285 737.652,236.236 C 740.036,238.540 742.420,240.844 744.804,243.148 C 747.228,239.707 749.651,236.265 752.075,232.824 C 770.605,206.513 775.068,201.419 785.976,194.129 C 797.293,186.566 806.922,183.593 820,183.626 C 825.225,183.639 831.514,184.224 833.974,184.924 C 846.823,188.582 860.664,198.449 867.500,208.824 C 871.196,214.434 872.184,215.212 880.500,219.082 C 905.459,230.696 907.621,231.872 908.811,234.484 C 912.015,241.516 908.782,245.065 894.632,250.044 C 881.658,254.609 874.390,258.787 867.404,265.697 C 859.965,273.055 855.175,283.557 848.074,308.080 C 841.301,331.469 837.718,341.073 831.502,352.500 C 807.921,395.852 768.300,419.558 712.091,423.948 C 705.266,424.481 699.328,425.274 698.896,425.709 C 697.594,427.019 678,464.700 678,465.894 C 678,467.334 722.803,467.380 743,465.962 C 785.682,462.965 826.109,455.238 863.304,442.969 C 908.761,427.975 939.735,408.837 943.964,393.133 C 948.405,376.642 921.282,357.814 873.125,343.962 C 868.906,342.748 864.734,340.825 863.375,339.466 C 860.362,336.453 860.229,331.250 863.073,327.635 C 865.944,323.986 870.797,324.165 884.500,328.428 C 925.048,341.043 949.919,356.066 958.593,373.183 C 962.685,381.258 963.308,386.483 962.062,402.288 C 959.413,435.900 953.925,464.773 944.819,493 C 934.870,523.841 923.183,547.154 906.885,568.670 C 878.663,605.927 831.244,628.637 762,638.058 C 742.291,640.739 689.880,641.859 667.324,640.081 C 611.876,635.709 569.103,622.983 535.398,600.829 C 493.799,573.486 462.514,514.131 450.550,439.852 C 446.424,414.238 444.488,389.611 446.019,382.223 ZM 939.899,426.526 C 939.130,426.981 935.158,429.591 931.074,432.326 C 915.164,442.979 884.052,456.322 856.500,464.307 C 805.949,478.958 754.413,485.528 695.523,484.831 C 686.197,484.721 676.872,484.610 667.546,484.500 C 666.375,486.667 665.204,488.833 664.033,491 C 657.088,503.849 643.238,514.724 628.992,518.515 C 618.140,521.403 599.203,520.092 585.500,515.505 C 576.487,512.488 556.867,502.646 554.913,500.162 C 553.861,498.825 553,496.196 553,494.321 C 553,491.185 555.094,488.854 579.138,465.206 C 615.133,429.805 631.429,411.092 648.422,385.646 C 657.121,372.620 666,355.709 666,352.168 C 666,350.547 665.044,349.830 661.750,348.979 C 639.609,343.258 626.291,338.834 613.500,332.950 C 611.167,331.877 608.833,330.803 606.500,329.730 C 601.667,330.461 596.833,331.193 592,331.924 C 540.128,339.774 496.030,354.364 475.926,370.327 C 458.792,383.932 460.171,397.205 480.284,412.284 C 495.362,423.588 513.805,432.470 542.019,442.016 C 559.359,447.883 562,449.715 562,455.881 C 562,460.797 558.763,464 553.794,464 C 549.834,464 531.569,458.202 516.048,452.019 C 502.499,446.621 486.319,438.383 476,431.630 C 470.041,427.730 467.407,426.487 467.189,427.472 C 467.018,428.245 467.822,434.193 468.977,440.689 C 479.044,497.301 500.948,545.375 528.962,572.343 C 554.788,597.205 597.297,613.860 652,620.553 C 670.021,622.758 720.056,623.628 739.690,622.078 C 799.258,617.375 847.606,600.882 876.016,575.573 C 898.511,555.533 918.661,519.371 930.542,477.717 C 934.088,465.285 939.356,440.883 940.607,431.099 C 941.179,426.621 941.059,425.840 939.899,426.526 ZM 755.959,305.500 C 751.120,274.405 730.738,248.172 694.871,226.875 C 680.131,218.123 662.107,210.215 635.500,200.828 C 597.446,187.402 562.971,171.861 545.222,160.132 C 540.119,156.760 535.438,154 534.820,154 C 532.870,154 534.647,173.558 537.488,183.363 C 544.771,208.495 560.530,226.654 589.051,242.781 C 595.180,246.246 612.625,253.433 623.500,256.973 C 632.471,259.893 635,262.147 635,267.220 C 635,272.314 631.498,276 626.657,276 C 621.852,276 601.634,268.896 588.314,262.528 C 577.123,257.177 564.479,249.605 560.254,245.723 C 559.019,244.588 557.719,243.948 557.365,244.302 C 556.576,245.091 561.311,258.673 564.755,265.500 C 574.317,284.454 592.369,301.840 614.052,312.978 C 627.616,319.945 638.844,324.130 656.822,328.920 C 665.240,331.163 672.936,333.431 673.926,333.961 C 679.270,336.821 683.980,345.393 683.994,352.282 C 684.010,360.123 676.202,376.359 662.462,397.057 C 656.728,405.694 653.761,411 654.663,411 C 657.529,411 678.040,406.037 685.444,403.551 C 716.344,393.178 742.434,371.164 751.018,348.222 C 756.047,334.781 757.952,318.306 755.959,305.500 ZM 677.551,425 C 677.304,425 670.441,426.308 662.301,427.906 C 654.161,429.504 645.025,431.114 642,431.484 C 636.536,432.152 636.432,432.229 626.088,443.328 C 620.361,449.473 607.199,462.850 596.838,473.056 C 586.477,483.262 578,491.940 578,492.341 C 578,492.742 580.138,493.988 582.750,495.108 C 614.337,508.654 636.317,503.537 649.787,479.500 C 655.233,469.782 678,426.258 678,425.566 C 678,425.255 677.798,425 677.551,425 ZM 867.532,233.015 C 859.492,229.318 858.842,228.774 854.658,222.246 C 841.918,202.370 821.409,196.143 801.276,206.040 C 792.547,210.331 785.787,216.913 776.007,230.644 C 771.362,237.165 765.015,245.929 761.901,250.120 C 760.014,252.660 758.127,255.200 756.240,257.740 C 757.257,259.367 758.273,260.993 759.290,262.620 C 777.553,291.843 779.789,331.556 764.848,361.315 C 762.588,365.817 759.388,371.466 757.739,373.869 C 752.876,380.954 742.236,391.672 733.574,398.212 C 730.883,400.244 728.191,402.276 725.500,404.308 C 727.196,404.086 728.892,403.863 730.588,403.641 C 744.893,401.765 768.041,392.403 780.862,383.306 C 798.642,370.691 812.738,352.734 821.525,331.507 C 823.402,326.972 827.664,313.924 830.996,302.512 C 834.328,291.100 838.400,278.599 840.046,274.732 C 845.908,260.956 857.747,247.606 869.789,241.191 C 873.205,239.371 876,237.664 876,237.396 C 876,237.128 872.189,235.156 867.532,233.015 Z" fill="#020202" stroke="none" />
  <path id="6" d="M 939.899,426.526 C 941.059,425.840 941.179,426.621 940.607,431.099 C 939.356,440.883 934.088,465.285 930.542,477.717 C 918.661,519.371 898.511,555.533 876.016,575.573 C 847.606,600.882 799.258,617.375 739.690,622.078 C 720.056,623.628 670.021,622.758 652,620.553 C 597.297,613.860 554.788,597.205 528.962,572.343 C 500.948,545.375 479.044,497.301 468.977,440.689 C 467.822,434.193 467.018,428.245 467.189,427.472 C 467.407,426.487 470.041,427.730 476,431.630 C 486.319,438.383 502.499,446.621 516.048,452.019 C 531.569,458.202 549.834,464 553.794,464 C 558.763,464 562,460.797 562,455.881 C 562,449.715 559.359,447.883 542.019,442.016 C 513.805,432.470 495.362,423.588 480.284,412.284 C 460.171,397.205 458.792,383.932 475.926,370.327 C 496.030,354.364 540.128,339.774 592,331.924 C 596.833,331.193 601.667,330.461 606.500,329.730 C 608.833,330.803 611.167,331.877 613.500,332.950 C 626.291,338.834 639.609,343.258 661.750,348.979 C 665.044,349.830 666,350.547 666,352.168 C 666,355.709 657.121,372.620 648.422,385.646 C 631.429,411.092 615.133,429.805 579.138,465.206 C 555.094,488.854 553,491.185 553,494.321 C 553,496.196 553.861,498.825 554.913,500.162 C 556.867,502.646 576.487,512.488 585.500,515.505 C 599.203,520.092 618.140,521.403 628.992,518.515 C 643.238,514.724 657.088,503.849 664.033,491 C 665.204,488.833 666.375,486.667 667.546,484.500 C 676.872,484.610 686.197,484.721 695.523,484.831 C 754.413,485.528 805.949,478.958 856.500,464.307 C 884.052,456.322 915.164,442.979 931.074,432.326 C 935.158,429.591 939.130,426.981 939.899,426.526 Z" fill="#FFFFFF" stroke="none" />
  <path id="6" d="M 755.959,305.500 C 757.952,318.306 756.047,334.781 751.018,348.222 C 742.434,371.164 716.344,393.178 685.444,403.551 C 678.040,406.037 657.529,411 654.663,411 C 653.761,411 656.728,405.694 662.462,397.057 C 676.202,376.359 684.010,360.123 683.994,352.282 C 683.980,345.393 679.270,336.821 673.926,333.961 C 672.936,333.431 665.240,331.163 656.822,328.920 C 638.844,324.130 627.616,319.945 614.052,312.978 C 592.369,301.840 574.317,284.454 564.755,265.500 C 561.311,258.673 556.576,245.091 557.365,244.302 C 557.719,243.948 559.019,244.588 560.254,245.723 C 564.479,249.605 577.123,257.177 588.314,262.528 C 601.634,268.896 621.852,276 626.657,276 C 631.498,276 635,272.314 635,267.220 C 635,262.147 632.471,259.893 623.500,256.973 C 612.625,253.433 595.180,246.246 589.051,242.781 C 560.530,226.654 544.771,208.495 537.488,183.363 C 534.647,173.558 532.870,154 534.820,154 C 535.438,154 540.119,156.760 545.222,160.132 C 562.971,171.861 597.446,187.402 635.500,200.828 C 662.107,210.215 680.131,218.123 694.871,226.875 C 730.738,248.172 751.120,274.405 755.959,305.500 Z" fill="#FFFFFF" stroke="none" />
  <path id="6" d="M 867.532,233.015 C 872.189,235.156 876,237.128 876,237.396 C 876,237.664 873.205,239.371 869.789,241.191 C 857.747,247.606 845.908,260.956 840.046,274.732 C 838.400,278.599 834.328,291.100 830.996,302.512 C 827.664,313.924 823.402,326.972 821.525,331.507 C 812.738,352.734 798.642,370.691 780.862,383.306 C 768.041,392.403 744.893,401.765 730.588,403.641 C 728.892,403.863 727.196,404.086 725.500,404.308 C 728.191,402.276 730.883,400.244 733.574,398.212 C 742.236,391.672 752.876,380.954 757.739,373.869 C 759.388,371.466 762.588,365.817 764.848,361.315 C 779.789,331.556 777.553,291.843 759.290,262.620 C 758.273,260.993 757.257,259.367 756.240,257.740 C 758.127,255.200 760.014,252.660 761.901,250.120 C 765.015,245.929 771.362,237.165 776.007,230.644 C 785.787,216.913 792.547,210.331 801.276,206.040 C 821.409,196.143 841.918,202.370 854.658,222.246 C 858.842,228.774 859.492,229.318 867.532,233.015 ZM 810.483,226.270 C 808.671,230.439 808.660,233.249 810.440,237.510 C 814.102,246.275 828.091,247.614 833.279,239.697 C 839.246,230.591 833.211,219.007 822.500,219.007 C 817.411,219.007 812.296,222.099 810.483,226.270 Z" fill="#FFFFFF" stroke="none" />
  <path id="6" d="M 677.551,425 C 677.798,425 678,425.255 678,425.566 C 678,426.258 655.233,469.782 649.787,479.500 C 636.317,503.537 614.337,508.654 582.750,495.108 C 580.138,493.988 578,492.742 578,492.341 C 578,491.940 586.477,483.262 596.838,473.056 C 607.199,462.850 620.361,449.473 626.088,443.328 C 636.432,432.229 636.536,432.152 642,431.484 C 645.025,431.114 654.161,429.504 662.301,427.906 C 670.441,426.308 677.304,425 677.551,425 Z" fill="#FFFFFF" stroke="none" />
  <path id="7" d="M 810.483,226.270 C 812.296,222.099 817.411,219.007 822.500,219.007 C 833.211,219.007 839.246,230.591 833.279,239.697 C 828.091,247.614 814.102,246.275 810.440,237.510 C 808.660,233.249 808.671,230.439 810.483,226.270 Z" fill="#020202" stroke="none" />
</svg>
